<?xml version="1.0" encoding="utf-8"?>
<!-- Generator: Adobe Illustrator 23.0.3, SVG Export Plug-In . SVG Version: 6.00 Build 0)  -->
<svg version="1.1" id="Layer_1" xmlns="http://www.w3.org/2000/svg" xmlns:xlink="http://www.w3.org/1999/xlink" x="0px" y="0px"
	 viewBox="0 0 595.28 841.89" style="enable-background:new 0 0 595.28 841.89;" xml:space="preserve">
<style type="text/css">
	.st0{fill:#FFFFFF;stroke:#000000;stroke-miterlimit:10;}
</style>
<path class="st0" d="M99.51,427.39c-0.63,1.37,46.69,38.99,103.83,42.95c32.92,2.28,84.59-5.54,90.19-28.04
	c6.44-25.86-47.31-73.65-99.03-72.51c-53.26,1.18-92.33,53.97-92.46,53.81c-0.11-0.13,24.61-34.28,66.69-42.69
	c57.93-11.59,123.93,30.56,121.01,54.06c-2.55,20.48-57.69,28.71-78.82,30.32c-21.31,1.62-40.59,3.09-51.03-9.35
	c-13.87-16.52-8.6-53.35,16.17-68.21c25.34-15.21,61.86-1.88,69.73,20.72c7.97,22.89-13.53,55.09-35.75,58.93
	c-31.73,5.49-104.37-40.08-107.05-40.55c-1.26-0.22-2.37,0.09-2.37,0.09C100.25,427.02,99.56,427.26,99.51,427.39z"/>
</svg>
