<?xml version="1.0" encoding="utf-8"?>
<!-- Generator: Adobe Illustrator 23.0.3, SVG Export Plug-In . SVG Version: 6.00 Build 0)  -->
<svg version="1.1" id="Layer_1" xmlns="http://www.w3.org/2000/svg" xmlns:xlink="http://www.w3.org/1999/xlink" x="0px" y="0px"
	 viewBox="0 0 595.28 841.89" style="enable-background:new 0 0 595.28 841.89;" xml:space="preserve">
<style type="text/css">
	.st0{fill:#FFFFFF;stroke:#000000;stroke-miterlimit:10;}
</style>
<path class="st0" d="M333.69,388.74c4.98,29.39,64.83,42.45,103.83,42.95c24.12,0.31,84.11-3.63,90.19-28.04
	c6.39-25.69-47.03-73.35-98.56-72.51c-0.11,0-0.26,0-0.47,0.01c-4.91,0.11-24.85,0.96-49.94,15.43
	c-26.15,15.09-43.87,36.89-42.53,38.38c1.66,1.84,26.28-34.61,66.69-42.69c57.93-11.59,123.93,30.56,121.01,54.06
	c-2.55,20.48-57.69,28.71-78.82,30.32c-21.31,1.62-40.59,3.09-51.03-9.35c-13.87-16.52-8.6-53.35,16.17-68.21
	c25.34-15.21,61.86-1.88,69.73,20.72c7.89,22.67-14.91,49.33-35.75,58.93c-34.66,15.97-67.93-52.24-107.05-40.55
	c-10.63,3.18-16.9,10.23-22.67,16.74c-36.66,41.28-30.4,128.96,6.57,189.98c14.49,23.91,33.36,43.19,26.53,53.81
	c-6.82,10.59-30.02-1.69-54.57,13.64c-16.91,10.56-18.99,24.56-28.8,24.25c-12.34-0.38-9.64-29.01-26.53-37.89
	c-21.6-11.37-53.76,18.74-59.12,12.88c-4.81-5.26,24.21-27.99,41.68-62.15c23.38-45.71,10.78-95.9-14.4-196.29
	c-2.01-8-5.55-21.35-16.67-27.28c-16.59-8.86-32.3,18.3-63.66,21.22c-26.01,2.43-59.8-11.07-62.91-31.83
	c-2.71-18.16,18.1-41.51,41.68-43.2c30.18-2.16,56,31.77,50.02,53.81c-5.65,20.82-38.58,26.89-55.33,27.28
	c-36.72,0.86-79.8-23.58-78.82-48.51c0.93-23.62,44.51-41.27,75.79-43.2c7.94-0.49,21.64-1.18,37.14,5.31
	c28.3,11.86,54.84,44.44,46.23,66.69c-8.76,22.64-49.85,24.06-55.33,24.25c-48.93,1.69-85.08-36.5-94.74-55.33
	c-6.1-11.91-9.85-26.02-9.85-26.02s-2.52-9.48-3.7-19.7c-1.37-11.81-11.28-151.35,25.93-220.8
	C106.28-34.78,384.79-77.98,511.55,40.36c54.72,51.08,52.31,191.02,47.49,470.91c-3.07,178.45-15.55,245.6-59.12,264.76
	c-46.61,20.5-151.04-4.16-181.39-47.49c-3.83-5.47-16.45-25.47-32.34-24.76c-13.32,0.6-18.37,15.29-30.82,14.15
	c-13.01-1.19-12.15-17.65-27.28-23.24c-11.59-4.28-29.12,4.56-64.17,22.23c-11.82,5.96-12.53,6.89-12.63,8.08
	c-1.26,14.53,88.48,46.42,161.18,19.71c10.7-3.93,18.21-6.69,18.19-10.61c-0.07-13.77-93.12-43.15-165.73-10.61
	c-50.11,22.45-52.02,57.16-73.26,54.06c-70.45-10.26-63.19-393.83-78.82-442.61c-0.38-1.2-2.55-7.73-0.51-15.16
	c5.12-18.57,33.27-30.83,42.44-23.75c4.97,3.84,2.8,12.16,6.57,13.14c5.53,1.44,10.19-16.48,21.22-17.68
	c7.9-0.86,9.43,7.87,20.21,10.11c15.26,3.16,26.87-11.33,32.84-6.57c4.87,3.89-0.9,15.1,3.54,18.19
	c5.42,3.77,20.14-8.77,21.73-10.11c42.66-35.86,189.73-33.21,200.08,1.52c2.28,7.65-1.72,18.01,1.52,19.2
	c4.75,1.75,14.54-20.09,21.73-18.19c5.77,1.52,3.82,16.76,9.6,18.69c6.67,2.24,15.59-23.72,22.74-22.23
	c5.53,1.15,4.64,17.2,10.11,18.19c6.2,1.12,12.15-18.63,18.69-17.68c6.49,0.94,5.01,21.02,13.64,23.75
	c8.58,2.71,16.5-15.1,26.27-13.14c10.51,2.11,18.09,26.06,11.62,31.83c-6.5,5.8-21.04-12.24-50.02-19.2
	c-34.3-8.24-76.14,2.08-99.03,29.81C341.15,363.75,331.45,375.5,333.69,388.74z"/>
</svg>
