<?xml version="1.0" encoding="utf-8"?>
<!-- Generator: Adobe Illustrator 23.0.3, SVG Export Plug-In . SVG Version: 6.00 Build 0)  -->
<svg version="1.1" id="Layer_1" xmlns="http://www.w3.org/2000/svg" xmlns:xlink="http://www.w3.org/1999/xlink" x="0px" y="0px"
	 viewBox="0 0 595.28 841.89" style="enable-background:new 0 0 595.28 841.89;" xml:space="preserve">
<style type="text/css">
	.st0{fill:#FFFFFF;stroke:#000000;stroke-miterlimit:10;}
</style>
<path class="st0" d="M162.41,347.56c-42.67,10.19-76.85,37.83-84.38,72.25C64.4,482.09,140.8,553.63,201.32,539.56
	c58.23-13.54,94.41-104.62,60.63-155.12c-19.27-28.8-57.44-38.61-85.39-36.88c-39.85,2.46-77.47,29.5-74.78,42.44
	c1.02,4.88,6.94,3.75,16.17,13.14c14.53,14.77,16.4,34.37,16.67,37.89c1.12,14.25-3.27,25.94-2.02,26.27
	c1.6,0.43,6.23-19.45,11.62-19.2c4.62,0.21,3.04,14.89,14.15,27.79c9.28,10.77,18.74,10.25,19.2,16.17
	c0.82,10.47-28.6,14.94-29.31,28.29c-0.45,8.51,10.85,18.6,19.2,17.56c10.61-1.32,19.31-20.96,28.55-41.81
	c0.36-0.81,0.81-1.84,1.64-3.16c6.01-9.45,16.2-8.44,22.23-13.52c8.23-6.92,9.71-25.95,2.15-34.36
	c-13.12-14.6-48.42,8.45-59.75-5.68c-5.44-6.79-3.44-19.78,3.03-27.16c5.21-5.94,15.01-10.15,20.34-6.82
	c6.49,4.05,2.23,16.67,9.47,20.46c2.72,1.42,7.08,1.62,9.09-0.51c5.52-5.84-13.75-21.74-8.97-38.02
	c3.39-11.54,16.47-15.06,15.41-25.77c-0.52-5.3-4.02-7.41-3.03-8.72c3.61-4.81,51.77,21.93,48.63,31.33
	c-1.31,3.92-10.49,1.69-14.53,8.46c-3.75,6.29-0.82,16.58,3.16,17.56c4.7,1.15,8.85-11.16,13.26-10.11
	c4.99,1.19,8.11,18.99,1.26,24.51c-5.5,4.43-13.59-2.12-18.19,2.27c-4.57,4.36-2.98,16.96,3.79,22.61c7.06,5.9,15.9,1,19.33,6.32
	c2.95,4.58-0.71,12.71-4.67,17.31c-4.73,5.49-9.8,5.87-14.02,8.34c-6.49,3.79-12.77,13.56-12.25,39.54"/>
</svg>
