<?xml version="1.0" encoding="utf-8"?>
<!-- Generator: Adobe Illustrator 23.0.3, SVG Export Plug-In . SVG Version: 6.00 Build 0)  -->
<svg version="1.1" id="Layer_1" xmlns="http://www.w3.org/2000/svg" xmlns:xlink="http://www.w3.org/1999/xlink" x="0px" y="0px"
	 viewBox="0 0 595.28 841.89" style="enable-background:new 0 0 595.28 841.89;" xml:space="preserve">
<style type="text/css">
	.st0{fill:#FFFFFF;stroke:#000000;stroke-miterlimit:10;}
</style>
<path class="st0" d="M113.4,186.38c81.06-82.42,253.92-87.5,318.32-12.13c77.45,90.65-10.02,288.27,37.89,306.19
	c17.76,6.64,33.37-19.16,50.02-12.13c50.71,21.43-15.02,294.35-27.28,292.55c-9.09-1.34,13.52-153.18-7.58-157.64
	c-26.09-5.52-81.1,222.34-122.78,216.76c-39.16-5.24-27.52-211.35-71.24-218.27c-44.38-7.03-81.64,201.32-142.48,200.08
	c-69.83-1.42-147.31-278.4-84.88-318.32c45.22-28.91,153,73.46,163.71,60.63c7.68-9.2-180.81-110.42-165.22-186.44
	C75.11,293.1,234.44,248.64,275.59,294c23.7,26.13,12.77,87.1-6.06,92.46c-20,5.69-65-46.72-54.57-78.82
	c15.38-47.31,157.59-70.1,194.02-16.67c23.51,34.47,2.19,99.48-10.61,100.04c-13.55,0.6-38.25-70.11-13.64-98.53
	c12.24-14.14,28.04-7.82,39.41-22.74c18.59-24.4,4.01-77.65-18.19-83.37c-22.13-5.7-31.02,41.16-74.27,56.08
	c-58.3,20.12-96.15-46.4-157.64-34.86C101.44,221.21,72.48,329.2,61.86,324.32C53.05,320.26,60.57,240.1,113.4,186.38z"/>
</svg>
