<?xml version="1.0" encoding="utf-8"?>
<!-- Generator: Adobe Illustrator 23.0.3, SVG Export Plug-In . SVG Version: 6.00 Build 0)  -->
<svg version="1.1" id="Layer_1" xmlns="http://www.w3.org/2000/svg" xmlns:xlink="http://www.w3.org/1999/xlink" x="0px" y="0px"
	 viewBox="0 0 595.28 841.89" style="enable-background:new 0 0 595.28 841.89;" xml:space="preserve">
<style type="text/css">
	.st0{fill:#FFFFFF;stroke:#000000;stroke-miterlimit:10;}
</style>
<path class="st0" d="M96.73,468.32c64.14-46.89,97.49-71.27,123.79-59.62c11.99,5.31,18.84,16.48,37.39,18.19
	c8.7,0.8,15.74-0.87,18.19-1.52c14.58-3.86,19.09-11.98,26.78-16.17c31.52-17.19,89.09,46.47,129.85,55.07
	c1.87,0.39,7.03,1.38,7.58,4.04c1.29,6.31-18.48,22.13-37.89,21.73c-26.37-0.55-43.29-30.98-49.52-26.78
	c-5.5,3.71,6.52,28.26,2.02,30.82c-5.3,3.01-23.37-30.16-37.89-26.78c-12.24,2.85-14.53,29.93-20.21,29.31
	c-5.64-0.62-3.57-27.31-12.13-29.81c-10.36-3.03-26.35,32.38-33.35,29.81c-8.16-2.99,6.9-53.63-1.52-57.09
	c-9.15-3.76-38.49,51.22-43.96,48.51c-4.97-2.46,15.81-49.53,10.11-52.55c-6.28-3.32-38.6,49.93-43.96,46.99
	c-5-2.74,17.66-52.11,14.65-53.56c-3.16-1.52-30.43,51.87-35.87,49.52c-4.29-1.85,9.29-36.49,3.54-39.41
	c-3.26-1.65-13.95,32.26-29.81,32.34c-5.67,0.03-10.28-4.22-17.18-1.52c-2.26,0.89-5.15,2.67-10.61,4.04
	c-2.07,0.52-5.6,1.41-6.06,0.51C90.1,473.27,94.41,470.01,96.73,468.32z"/>
</svg>
