<?xml version="1.0" encoding="utf-8"?>
<!-- Generator: Adobe Illustrator 23.0.3, SVG Export Plug-In . SVG Version: 6.00 Build 0)  -->
<svg version="1.1" id="Layer_1" xmlns="http://www.w3.org/2000/svg" xmlns:xlink="http://www.w3.org/1999/xlink" x="0px" y="0px"
	 viewBox="0 0 288 560" style="enable-background:new 0 0 288 560;" xml:space="preserve">
<style type="text/css">
	.st0{fill:#FFFFFF;stroke:#000000;stroke-miterlimit:10;}
</style>
<path class="st0" d="M64.53,131.24"/>
<path class="st0" d="M44.6,111.61c0.02-0.01,0.03-0.01,0.03-0.01c0.02,0,0.04,0,0.04,0c0.07,0.01,44.15,0.1,44.27,0.1
	c0,0,0.08,0,0.08,0c0.08,0,0.08,0,0.08,0c0.23,0,0.23,29.76,0.23,29.76c0,0,0,0.05,0,0.05c0,0.03,0,0.03,0,0.03
	c0,0.09-44.29-0.03-44.29-0.03c-0.94,0-1.07,0-1.07,0c-0.01,0-0.04,0-0.09,0c0,0-0.08,0-0.14,0
	C43.55,141.49,44.54,111.63,44.6,111.61z"/>
</svg>
