<?xml version="1.0" encoding="utf-8"?>
<!-- Generator: Adobe Illustrator 23.0.3, SVG Export Plug-In . SVG Version: 6.00 Build 0)  -->
<svg version="1.1" id="Layer_1" xmlns="http://www.w3.org/2000/svg" xmlns:xlink="http://www.w3.org/1999/xlink" x="0px" y="0px"
	 viewBox="0 0 288 560" style="enable-background:new 0 0 288 560;" xml:space="preserve">
<style type="text/css">
	.st0{fill:#FFFFFF;stroke:#000000;stroke-miterlimit:10;}
</style>
<path class="st0" d="M78.08,137.13"/>
<path class="st0" d="M31.78,63.76c8.06-2.42,86.26,0.93,86.4,0.95l0,0c0,0,2.11,0,4.55,0c3.41,0,3.41,0,3.41,0
	c7.27,1.16,3.03,91.15,3.03,96.25c0,3.54,0,3.6,0,3.6c0.01,2.66,0.02,3.23,0,4.36c-0.02,1.45-0.06,3.8-0.19,4.36
	c-1.76,7.81-97.91,0.24-103.07,0.38c-3.12,0.08-4.55,0.19-4.55,0.19c-0.95,0.07-1.68,0.15-2.84,0.19c-1.67,0.06-2.94,0.01-3.03,0
	c-4.73-0.34-5.96-109.18,2.27-109.89c0.18-0.02,1.84-0.11,3.98,0c3.02,0.15,4.07,0.54,6.25,0.38
	C29.97,64.37,31.37,63.88,31.78,63.76z"/>
</svg>
