<?xml version="1.0" encoding="utf-8"?>
<!-- Generator: Adobe Illustrator 23.0.3, SVG Export Plug-In . SVG Version: 6.00 Build 0)  -->
<svg version="1.1" id="Layer_1" xmlns="http://www.w3.org/2000/svg" xmlns:xlink="http://www.w3.org/1999/xlink" x="0px" y="0px"
	 viewBox="0 0 288 560" style="enable-background:new 0 0 288 560;" xml:space="preserve">
<style type="text/css">
	.st0{fill:#FFFFFF;stroke:#000000;stroke-miterlimit:10;}
</style>
<path class="st0" d="M78.08,137.13"/>
<path class="st0" d="M20.85,71.32c0.04-0.02,0.09-0.03,0.09-0.03c0.06-0.01,0.11,0,0.11,0c0.21,0.04,126.71,0.32,127.07,0.32
	c0,0,0.23,0,0.23,0c0.23,0,0.23,0,0.23,0c0.67,0,0.67,99.76,0.67,99.76c0,0,0,0.18,0,0.18c0,0.09,0,0.09,0,0.09
	c0,0.29-127.12-0.11-127.12-0.11c-2.7-0.01-3.06,0-3.06,0c-0.02,0-0.13,0-0.26,0c0,0-0.22,0-0.41-0.01
	C17.84,171.51,20.7,71.4,20.85,71.32z"/>
</svg>
